<svg width="209" height="107" viewBox="0 0 209 107" fill="none" xmlns="http://www.w3.org/2000/svg">
<rect x="208.655" width="107" height="4.56567" transform="rotate(90 208.655 0)" fill="#161A1B"/>
<rect x="198.364" width="107" height="4.56567" transform="rotate(90 198.364 0)" fill="#161A1B"/>
<rect x="188.072" width="107" height="14.6102" transform="rotate(90 188.072 0)" fill="#161A1B"/>
<rect x="167.737" width="107" height="29.7961" transform="rotate(90 167.737 0)" fill="#161A1B"/>
<rect x="132.215" width="107" height="4.56567" transform="rotate(90 132.215 0)" fill="#161A1B"/>
<rect x="121.924" width="107" height="4.56567" transform="rotate(90 121.924 0)" fill="#161A1B"/>
<rect x="111.632" width="107" height="14.6102" transform="rotate(90 111.632 0)" fill="#161A1B"/>
<rect x="91.2967" width="107" height="29.7961" transform="rotate(90 91.2967 0)" fill="#161A1B"/>
<rect x="55.7752" width="107" height="4.56567" transform="rotate(90 55.7752 0)" fill="#161A1B"/>
<rect x="45.4837" width="107" height="4.56567" transform="rotate(90 45.4837 0)" fill="#161A1B"/>
<rect x="35.1927" width="107" height="14.6102" transform="rotate(90 35.1927 0)" fill="#161A1B"/>
<rect x="14.8568" width="107" height="4.56567" transform="rotate(90 14.8568 0)" fill="#161A1B"/>
<rect x="4.56573" width="107" height="4.56567" transform="rotate(90 4.56573 0)" fill="#161A1B"/>
</svg>
