<svg width="167" height="23" viewBox="0 0 167 23" fill="none" xmlns="http://www.w3.org/2000/svg">
<g clip-path="url(#clip0_1617_375)">
<path d="M161.8 4.3H155.1L150 22.1H154.7L155.6 18.3H161.3L162.2 22.1H167L161.8 4.3ZM156.5 14.6L158.1 8.3H158.8L160.4 14.6H156.5ZM124.5 4.3H110.2V8.6H115.1V22.1H119.7V8.6H124.5V4.3ZM143.4 15.2C143.4 16.9 142.1 18.1 140.4 18.1C138.7 18.1 137.4 16.9 137.4 15.2V4.3H132.8V15.3C132.8 19.5 136 22.5 140.3 22.5C144.7 22.5 147.8 19.6 147.8 15.3V4.3H143.2V15.2H143.4ZM4.8 13.2C4.8 10.3 7.1 8.6 9.5 8.6C11.4 8.6 12.4 9.1 13.9 10.1V4.8C12.7 4.3 11.4 4 9.6 4C3.7 4 0 8.1 0 13.2C0 18.3 3.6 22.4 9.6 22.4C11.8 22.4 13.3 21.9 14.3 21.4V16.1C12.9 17 11.9 17.7 9.6 17.7C7.1 17.9 4.8 16.1 4.8 13.2ZM107.3 9.8C107.3 6.6 104.9 4.3 101.7 4.3H94.3V22.1H98.7V15.3H99.3L104 22.1H109.2L103.9 14.8C106 14 107.3 12.1 107.3 9.8ZM100.9 11.9H98.7V8H100.9C101.9 8 102.9 8.8 102.9 10C102.9 11.2 101.9 11.9 100.9 11.9ZM83 15.1H88.8V11.1H83V8.4H89.8V4.3H78.4V22.1H89.9V18H83V15.1ZM51.4 13.9H50.9L44.7 4.3H40.4V22.1H44.8V12.6H45.3L51.5 22.1H55.9V4.3H51.4V13.9ZM64.6 13.2C64.6 10.3 66.9 8.6 69.3 8.6C71.2 8.6 72.2 9.1 73.7 10.1V4.8C72.5 4.3 71.1 4 69.3 4C63.4 4 59.7 8.1 59.7 13.2C59.7 18.3 63.3 22.4 69.3 22.4C71.5 22.4 73 21.9 74 21.4V16.1C72.6 17 71.6 17.7 69.3 17.7C66.8 17.9 64.6 16.1 64.6 13.2ZM126.9 16.1C125.1 16.1 123.8 17.4 123.8 19.3C123.8 21.1 125.1 22.4 126.9 22.4C128.7 22.4 130.1 21.1 130.1 19.3C130 17.4 128.7 16.1 126.9 16.1Z" fill="#525252"/>
<g clip-path="url(#clip1_1617_375)">
<path d="M33.6466 4.65027V1.97178C33.6466 1.71461 33.5973 1.45995 33.5014 1.22235C33.4055 0.984755 33.265 0.768867 33.0879 0.587017C32.9107 0.405167 32.7004 0.260915 32.469 0.162499C32.2376 0.0640821 31.9895 0.0134277 31.739 0.0134277C31.4885 0.0134277 31.2404 0.0640821 31.009 0.162499C30.7776 0.260915 30.5673 0.405167 30.3901 0.587017C30.213 0.768867 30.0725 0.984755 29.9766 1.22235C29.8807 1.45995 29.8314 1.71461 29.8314 1.97178V2.77193C28.273 2.4082 26.6544 2.41367 25.0985 2.78793C25.0324 2.32654 24.8064 1.90508 24.4621 1.60086C24.1178 1.29663 23.6782 1.13004 23.224 1.13163C22.9776 1.12895 22.7332 1.1768 22.5051 1.27236C22.2769 1.36792 22.0697 1.50927 21.8955 1.68812C21.7212 1.86698 21.5836 2.07974 21.4905 2.31394C21.3974 2.54814 21.3508 2.79905 21.3534 3.05198V4.65227C19.2685 6.40259 18 9.08108 18 12.2477C18 17.8847 22.0081 22.0054 27.499 22.0054C32.9899 22.0054 37 17.8847 37 12.2477C37 9.08108 35.7315 6.40259 33.6466 4.65027ZM27.84 6.58662C27.8537 6.30646 27.9733 6.04284 28.1735 5.85191C28.3737 5.66098 28.6385 5.55783 28.9117 5.56444C29.182 5.55852 29.4437 5.66273 29.6394 5.85428C29.8351 6.04583 29.949 6.30913 29.9561 6.58662V8.83103H27.84V6.58662ZM24.9971 6.58662C25.0073 6.31017 25.1221 6.04868 25.3171 5.85778C25.5122 5.66688 25.7721 5.56164 26.0415 5.56444C26.3144 5.55836 26.5788 5.66174 26.7785 5.85262C26.9783 6.0435 27.0976 6.30682 27.1113 6.58662V8.83103H24.9971V6.58662ZM27.499 17.5366C26.0916 17.5313 24.7437 16.9532 23.7509 15.9291C22.7581 14.905 22.2014 13.5185 22.203 12.0736V3.04398C22.2022 2.90639 22.2281 2.77001 22.2792 2.64281C22.3303 2.51561 22.4056 2.40013 22.5006 2.30311C22.5957 2.2061 22.7086 2.12949 22.8328 2.07775C22.957 2.02602 23.09 2.00019 23.224 2.00179C23.36 1.99859 23.4953 2.02334 23.6219 2.07458C23.7485 2.12582 23.8638 2.20253 23.9611 2.30018C24.0584 2.39783 24.1357 2.51447 24.1885 2.64323C24.2413 2.77199 24.2684 2.91029 24.2684 3.04998V9.12309C24.157 9.2233 24.0671 9.34616 24.0044 9.48389C23.9417 9.62163 23.9075 9.77123 23.904 9.92323C23.8998 10.262 23.9617 10.5982 24.0858 10.9121C24.21 11.226 24.3941 11.5112 24.6271 11.7511C24.8602 11.9909 25.1376 12.1805 25.4431 12.3087C25.7486 12.4369 26.0759 12.5012 26.4059 12.4977H28.8844C28.9811 12.4977 29.0737 12.4583 29.1421 12.3881C29.2104 12.318 29.2488 12.2228 29.2488 12.1236C29.2488 12.0244 29.2104 11.9293 29.1421 11.8591C29.0737 11.789 28.9811 11.7496 28.8844 11.7496H26.4059C26.1723 11.7522 25.9406 11.707 25.7243 11.6165C25.508 11.5259 25.3115 11.3919 25.1463 11.2224C24.9811 11.0528 24.8506 10.8511 24.7624 10.629C24.6742 10.4069 24.6301 10.169 24.6328 9.92923C24.6435 9.84042 24.6829 9.75787 24.7447 9.69477C24.8065 9.63167 24.8872 9.59167 24.9737 9.58117H30.2445C30.9138 9.5816 31.5561 9.85186 32.0332 10.3338C32.5102 10.8157 32.7839 11.4706 32.7951 12.1576C32.7757 13.5881 32.2097 14.9534 31.2191 15.9595C30.2285 16.9657 28.8925 17.532 27.499 17.5366ZM32.797 10.0873C32.2706 9.4172 31.514 8.97979 30.6829 8.86504V1.97178C30.6813 1.82712 30.7079 1.68359 30.7611 1.54963C30.8143 1.41566 30.8931 1.29396 30.9927 1.19166C31.0924 1.08936 31.2109 1.00853 31.3414 0.953905C31.4719 0.899285 31.6117 0.871977 31.7526 0.873584C31.8919 0.873815 32.0297 0.902571 32.1579 0.958168C32.2862 1.01377 32.4024 1.09508 32.4996 1.19736C32.5969 1.29964 32.6733 1.42082 32.7244 1.5538C32.7755 1.68678 32.8002 1.82888 32.797 1.97178V10.0873Z" fill="#525252"/>
</g>
</g>
<defs>
<clipPath id="clip0_1617_375">
<rect width="167" height="23" fill="white"/>
</clipPath>
<clipPath id="clip1_1617_375">
<rect width="19" height="22" fill="white" transform="translate(18)"/>
</clipPath>
</defs>
</svg>
