<svg width="198" height="42" viewBox="0 0 198 42" fill="none" xmlns="http://www.w3.org/2000/svg">
<g clip-path="url(#clip0_1617_568)">
<path d="M13.9487 11.5701H20.2338V24.9374H29.0532V30.2883H13.9487V11.5701Z" fill="#B0B0AE"/>
<path d="M37.5886 11.5701H44.6239L48.2733 22.0701L51.9226 11.5701H58.8362L51.213 30.4095H45.2118L37.5886 11.5701Z" fill="#B0B0AE"/>
<path d="M59.0796 11.5701H75.0964V16.6989H65.243V18.597H74.4274V23.1201H65.243V25.1595H75.2181V30.2883H59.0593V11.5701H59.0796Z" fill="#B0B0AE"/>
<path d="M82.6587 11.5701H88.5383L95.2288 19.8287V11.5701H101.453V30.2681H95.8776L88.9032 21.646V30.2681H82.679V11.5701H82.6587Z" fill="#525252"/>
<path d="M109.056 11.4287H115.28L123.187 30.2681H116.375L115.382 27.7643H108.813L107.84 30.2681H101.129L109.056 11.4287ZM113.841 23.322L112.117 18.7787L110.394 23.322H113.841Z" fill="#525252"/>
<path d="M124.221 16.8605H118.686V11.5701H136.021V16.8605H130.486V30.2681H124.201V16.8605H124.221Z" fill="#525252"/>
<path d="M136.974 11.5701H143.259V30.2681H136.974V11.5701Z" fill="#525252"/>
<path d="M144.475 20.9797V20.9191C144.475 15.4874 148.956 11.1663 154.754 11.1663C160.553 11.1663 164.973 15.447 164.973 20.8586V20.9191C164.973 26.3509 160.492 30.672 154.694 30.672C148.895 30.672 144.475 26.3913 144.475 20.9797ZM158.647 20.9797V20.9191C158.647 18.698 157.127 16.699 154.694 16.699C152.301 16.699 150.801 18.6778 150.801 20.8586V20.9191C150.801 23.1403 152.322 25.1393 154.754 25.1393C157.147 25.1393 158.647 23.1605 158.647 20.9797Z" fill="#525252"/>
<path d="M165.622 11.5701H171.501L178.192 19.8287V11.5701H184.416V30.2681H178.82L171.846 21.646V30.2681H165.622V11.5701Z" fill="#525252"/>
<path d="M198 42H0V0H198V42ZM4.15626 37.8404H193.844V4.13942H4.15626V37.8404Z" fill="#B0B0AE"/>
<path d="M39.8391 7.77398C39.8391 7.77398 39.4336 7.06725 39.3525 6.92591C39.2714 6.78456 39.1497 6.88552 39.1497 6.88552C39.1497 6.88552 38.7443 7.18841 38.5212 7.32975C38.2982 7.4711 38.3185 7.65283 38.3185 7.7336C38.3185 7.83456 38.2577 8.37975 38.2577 8.37975C38.2374 8.50091 38.1766 8.60187 38.136 8.66244L34.5272 11.449L34.0811 11.5499L32.9661 12.0951L33.0269 11.348C33.108 11.3884 33.2296 11.5096 33.3107 11.5298C33.4121 11.5499 33.5743 11.5096 33.5743 11.5096C33.5743 11.5096 33.5135 11.3682 33.5135 11.2874C33.5135 11.2067 33.5337 11.0653 33.5337 11.0653C33.5337 11.0653 33.6959 11.1663 33.8378 11.1663C33.9392 11.1663 34.0406 11.1259 34.1014 11.0855C34.1622 11.0451 34.2231 10.9644 34.2231 10.9644C34.2231 10.9644 34.0203 10.8432 33.9392 10.7624C33.8987 10.7019 33.8176 10.6211 33.8581 10.6211C33.9595 10.6211 34.1217 10.4798 34.1217 10.4798C34.1217 10.4798 34.0203 10.4192 33.9189 10.3384C33.8176 10.2576 33.777 10.1971 33.7365 10.0961C33.6959 9.99514 33.6757 9.91437 33.6757 9.91437C33.6757 9.91437 33.7365 9.99514 33.8784 9.99514C34 9.99514 34.1217 9.91437 34.1217 9.91437C34.1217 9.91437 34.0203 9.85379 33.9595 9.79321C33.8987 9.71244 33.8378 9.63167 33.7973 9.53071C33.7568 9.38937 33.7365 9.3086 33.6959 9.20764C33.6757 9.14706 33.6757 9.06629 33.6351 8.92494C33.5946 8.60187 33.4526 8.46052 33.4526 8.46052C33.0269 7.89514 32.0537 7.75379 32.0537 7.75379C31.5671 7.65283 31.0603 8.29898 30.8575 8.94514C30.5331 10.0153 30.6345 11.0653 30.6345 11.0653C30.6345 11.0653 30.6548 11.2673 30.817 11.3682C30.9183 11.4288 31.3441 11.5298 31.3441 11.5298L31.3035 12.398L30.2696 12.4788C30.2696 12.4788 29.4991 12.0144 28.8503 11.6307L25.9916 9.51052C25.9916 9.51052 25.87 9.42975 25.8497 9.20764C25.8497 9.20764 25.7889 8.66244 25.7889 8.56148C25.7889 8.46052 25.8092 8.29898 25.5862 8.15764C25.3631 8.01629 24.9577 7.71341 24.9577 7.71341C24.9577 7.71341 24.8157 7.59225 24.7346 7.7336C24.6535 7.87494 24.248 8.58167 24.248 8.58167L24.4508 9.38937C24.4508 9.38937 24.5319 9.55091 24.6738 9.69225L24.8563 9.87398L25.9106 10.823H25.9308L27.6744 12.3778L28.1813 12.8624C28.1813 12.8624 28.2218 12.923 28.2218 13.024C28.2218 13.1249 28.2218 13.4076 28.2218 13.4076C28.2218 13.4076 28.2218 13.4884 28.2624 13.549C28.3232 13.6096 29.2558 14.3567 29.2558 14.3567C29.2558 14.3567 29.3167 14.4173 29.3167 14.5384L29.4788 20.1115C29.4788 20.1115 29.4788 20.1923 29.5599 20.1923L29.8641 20.3134L30.5534 26.4115L31.8712 30.4499L29.783 31.4596C29.783 31.4596 29.7019 31.4999 29.6613 31.5807C29.6613 31.5807 29.5397 31.823 29.5397 31.8634C29.5397 31.9442 29.6005 31.9644 29.6005 31.9644H32.7025L32.3984 32.7721L32.3173 32.9942C32.3173 32.9942 32.2159 33.398 32.3781 33.4586C32.5606 33.5192 33.108 33.5394 33.3513 33.5192C33.6554 33.499 34.2028 33.4586 34.3042 33.3778C34.3853 33.2971 34.4258 32.9134 33.9798 30.4499L33.7162 20.9192L34.5069 14.9423C34.588 14.2759 34.6691 14.2153 34.6691 14.2153C34.6691 14.2153 35.5206 13.5894 35.6017 13.5086C35.6828 13.4278 35.6625 13.3067 35.6625 13.3067V12.6403C35.6625 12.5192 35.7031 12.4182 35.7031 12.4182L36.3924 11.7519L36.5952 11.5499L38.7848 9.44994L39.17 9.00571L39.3525 8.82398C39.4741 8.68264 39.5552 8.5211 39.5552 8.5211C39.5552 8.5211 39.7174 8.11725 39.7783 7.9961C39.8999 7.91533 39.8391 7.77398 39.8391 7.77398Z" fill="#525252"/>
<path d="M187.478 13.0038C187.478 12.1961 188.126 11.5298 188.958 11.5298C189.789 11.5298 190.438 12.1961 190.438 13.0038C190.438 13.8115 189.789 14.4779 188.958 14.4779C188.106 14.4577 187.478 13.7913 187.478 13.0038ZM190.255 12.9836C190.255 12.2567 189.687 11.6711 188.958 11.6711C188.207 11.6711 187.64 12.2567 187.64 12.9836C187.64 13.7106 188.207 14.2759 188.937 14.2759C189.687 14.2961 190.255 13.7106 190.255 12.9836ZM188.349 12.1557H189.039C189.241 12.1557 189.424 12.2163 189.525 12.3173C189.606 12.3981 189.647 12.5192 189.647 12.6606C189.647 12.9029 189.505 13.0644 189.302 13.1452L189.687 13.7106H189.282L188.937 13.2057H188.674V13.7307H188.349V12.1557ZM189.039 12.9231C189.221 12.9231 189.302 12.8221 189.302 12.7009C189.302 12.5596 189.201 12.4788 189.018 12.4788H188.674V12.9231H189.039Z" fill="#525252"/>
</g>
<defs>
<clipPath id="clip0_1617_568">
<rect width="198" height="42" fill="white"/>
</clipPath>
</defs>
</svg>
