<svg width="186" height="26" viewBox="0 0 186 26" fill="none" xmlns="http://www.w3.org/2000/svg">
<path d="M2.11639 7.9872H5.42325L6.19485 4.35161L11.1 2.75415L9.99775 7.9872H14.0762L13.3597 11.3474H9.28126L7.62783 19.0042C7.5176 19.3897 7.40737 20.0508 7.40737 20.7118C7.40737 21.7584 8.12386 22.4194 9.17103 22.4194C9.99775 22.4194 10.8245 22.2542 11.3756 22.0338L10.604 25.5592C9.8324 25.7245 8.95057 25.9448 8.12386 25.9448C5.03745 25.9448 2.83288 24.733 2.83288 21.3728C2.83288 19.9957 3.10845 18.6736 3.43913 17.2965L4.70676 11.3474H1.3999L2.11639 7.9872Z" fill="#525252"/>
<path d="M120.502 22.8601H120.447C118.904 24.8432 117.306 25.9449 114.77 25.9449C111.629 25.9449 109.369 24.1822 109.369 20.9322C109.369 15.1483 115.818 14.7076 120.116 14.7076H121.715C121.825 14.2118 121.825 13.7161 121.825 13.2203C121.825 11.4576 119.896 10.9618 118.298 10.9618C116.314 10.9618 114.329 11.4576 112.511 12.3389L113.172 8.70335C115.101 8.04233 117.085 7.65674 119.124 7.65674C122.652 7.65674 125.959 8.92369 125.959 13.055C125.959 15.4237 124.195 22.3093 123.809 25.6144H119.951L120.502 22.8601ZM116.038 22.6398C119.455 22.6398 120.502 20.2711 121.219 17.4618H119.62C117.416 17.4618 113.723 17.8474 113.723 20.822C113.723 21.9788 114.881 22.6398 116.038 22.6398Z" fill="#525252"/>
<path d="M15.9502 7.98728H20.5247L16.7769 25.5042H12.2024L15.9502 7.98728ZM17.6036 0.440674H22.1781L21.2411 4.79237H16.6667L17.6036 0.440674Z" fill="#525252"/>
<path d="M34.3032 12.0084C33.4214 11.4025 32.2088 11.1271 30.9412 11.1271C27.3037 11.1271 25.2644 14.5423 25.2644 17.8474C25.2644 20.1059 26.036 22.4195 29.1224 22.4195C30.2247 22.4195 31.6577 22.0889 32.8151 21.5381L32.3191 25.1737C30.9412 25.8347 29.398 26 27.9099 26C23.3905 26 20.4695 22.9703 20.4695 18.4534C20.4695 12.3389 24.5479 7.65674 30.831 7.65674C32.5395 7.65674 34.193 7.98725 35.4055 8.31776L34.3032 12.0084Z" fill="#525252"/>
<path d="M39.3187 0H43.8932L40.8619 14.3771H40.917L47.3103 7.98729H53.2075L44.8301 15.9746L50.066 25.5593H44.9404L40.421 16.25H40.3659L38.3817 25.5593H33.9175L39.3187 0Z" fill="#525252"/>
<path d="M69.6867 7.9872H72.9936L73.7652 4.35161L78.6703 2.75415L77.5681 7.9872H81.6465L80.93 11.3474H76.8516L75.1981 19.0042C75.0879 19.3897 74.9777 20.0508 74.9777 20.7118C74.9777 21.7584 75.6942 22.4194 76.7413 22.4194C77.5681 22.4194 78.3948 22.2542 78.9459 22.0338L78.1743 25.5592C77.4027 25.7245 76.5209 25.9448 75.6942 25.9448C72.6078 25.9448 70.4032 24.733 70.4032 21.3728C70.4032 19.9957 70.6788 18.6736 71.0094 17.2965L72.2771 11.3474H68.9702L69.6867 7.9872Z" fill="#525252"/>
<path d="M68.1435 14.2668C68.1435 9.80495 65.2775 7.60156 60.9786 7.60156C55.1916 7.60156 51.0029 12.8346 51.0029 18.288C51.0029 23.5211 54.42 25.9448 59.4354 25.9448C61.3093 25.9448 63.2383 25.5041 65.002 24.9533L65.6082 21.3177C63.8997 22.0889 62.0809 22.5846 60.207 22.5846C57.286 22.5846 55.5774 21.538 55.357 18.7838C55.357 18.6185 55.357 18.4533 55.357 18.288C55.357 18.2329 55.357 18.2329 55.357 18.1778V18.1227C55.357 16.9109 55.6325 15.7541 56.0734 14.6524C56.9553 12.3939 58.1678 10.8516 60.8684 10.8516C62.7974 10.8516 63.7895 11.8982 63.7895 13.7711C63.7895 14.1566 63.7343 14.5422 63.6792 14.9829H57.4513C57.0655 16.36 56.9553 17.2965 56.9553 18.1227H67.7026C67.9782 16.8558 68.1435 15.5888 68.1435 14.2668Z" fill="#525252"/>
<path d="M83.6307 9.91512C83.7409 9.2541 83.9063 8.538 84.0165 7.98716H88.2603L87.8745 10.3558H87.9296C89.1422 8.538 91.1814 7.60156 93.3309 7.60156C95.4252 7.60156 97.5747 8.81343 97.7951 10.9617H97.8502C99.0076 8.70326 101.543 7.60156 104.023 7.60156C106.669 7.60156 108.873 9.74987 108.873 12.3939C108.873 13.9363 108.487 15.7541 108.102 17.1863L106.283 25.5592H101.708L103.527 17.0211C103.747 15.9744 104.133 14.3219 104.133 13.2753C104.133 12.0083 103.141 11.1821 101.984 11.1821C98.7872 11.1821 98.0156 14.8727 97.4644 17.2414L95.6457 25.5592H91.0712L92.8899 17.0211C93.1104 15.9744 93.4962 14.3219 93.4962 13.2753C93.4962 12.0083 92.5041 11.1821 91.3467 11.1821C88.2603 11.1821 87.3785 14.8727 86.8274 17.2414L85.0086 25.5592H80.4341L83.6307 9.91512Z" fill="#525252"/>
<path d="M139.572 11.5678C139.076 11.2923 137.808 10.9067 136.54 10.9067C135.163 10.9067 133.454 11.2923 133.454 12.6695C133.454 14.8728 139.406 15.6991 139.406 19.9957C139.406 24.5678 135.438 25.9449 131.525 25.9449C129.706 25.9449 127.832 25.6695 126.179 24.8983L127.171 21.2627C128.439 21.9788 129.761 22.6398 131.525 22.6398C133.068 22.6398 134.667 22.144 134.667 20.7118C134.667 17.9025 128.714 17.6271 128.714 13.2203C128.714 9.08894 132.682 7.65674 136.32 7.65674C137.973 7.65674 139.682 7.98725 140.619 8.20759L139.572 11.5678Z" fill="#525252"/>
<path d="M142.493 7.9872H145.8L146.571 4.35161L151.476 2.75415L150.374 7.9872H154.453L153.736 11.3474H149.658L148.004 19.0042C147.894 19.3897 147.784 20.0508 147.784 20.7118C147.784 21.7584 148.5 22.4194 149.547 22.4194C150.374 22.4194 151.201 22.2542 151.752 22.0338L150.98 25.5592C150.209 25.7245 149.327 25.9448 148.5 25.9448C145.414 25.9448 143.209 24.733 143.209 21.3728C143.209 19.9957 143.485 18.6736 143.76 17.2965L145.083 11.3474H141.776L142.493 7.9872Z" fill="#525252"/>
<path d="M173.467 10.3558C173.577 9.58461 173.743 8.81343 173.853 7.98716H178.207L177.601 11.2922H177.656C178.483 9.36427 180.742 7.60156 182.837 7.60156C183.443 7.60156 184.049 7.65665 184.6 7.76682L183.663 12.2287C183.167 12.0634 182.506 11.9533 181.9 11.9533C178.648 11.9533 177.105 14.8727 176.498 17.6821L174.845 25.5592H170.271L173.467 10.3558Z" fill="#525252"/>
<path d="M170.326 14.2668C170.326 9.80495 167.46 7.60156 163.161 7.60156C157.429 7.60156 153.185 12.8346 153.185 18.288C153.185 23.5211 156.602 25.9448 161.618 25.9448C163.491 25.9448 165.42 25.5041 167.184 24.9533L167.79 21.3177C166.082 22.0889 164.263 22.5846 162.389 22.5846C159.468 22.5846 157.76 21.538 157.539 18.7838C157.539 18.6185 157.539 18.4533 157.539 18.288C157.539 18.2329 157.539 18.2329 157.539 18.1778V18.1227C157.539 16.9109 157.815 15.7541 158.256 14.6524C159.137 12.3939 160.35 10.8516 163.051 10.8516C164.98 10.8516 165.972 11.8982 165.972 13.7711C165.972 14.1566 165.916 14.5422 165.861 14.9829H159.633C159.248 16.36 159.137 17.2965 159.137 18.1227H169.885C170.16 16.8558 170.326 15.5888 170.326 14.2668Z" fill="#525252"/>
</svg>
