<svg width="49" height="25" viewBox="0 0 49 25" fill="none" xmlns="http://www.w3.org/2000/svg">
<path fill-rule="evenodd" clip-rule="evenodd" d="M24.5021 3.65407e-06C24.8077 0.00105193 25.0623 0.227446 25.0894 0.522416L26.694 17.94L28.2175 1.20888C28.2444 0.913447 28.4993 0.686646 28.8054 0.685877C29.1115 0.685108 29.3677 0.910627 29.3962 1.20592L30.94 17.2121L32.4373 2.87811C32.4677 2.58703 32.7194 2.36482 33.0213 2.36248C33.3232 2.36014 33.5786 2.57843 33.6138 2.869L35.2644 16.4929L36.8344 5.22162C36.8737 4.94006 37.1198 4.72879 37.4129 4.72497C37.7061 4.72115 37.958 4.92594 38.005 5.20638L39.7387 15.5478L41.7687 7.59924C41.8324 7.34981 42.0596 7.1719 42.3246 7.16386C42.5897 7.15583 42.8279 7.31964 42.9076 7.56473L45.0307 14.0963L46.3434 9.48958C46.4111 9.25196 46.628 9.08286 46.882 9.06962C47.1361 9.05638 47.3704 9.20195 47.4641 9.43117L48.9583 13.0892C49.0786 13.3836 48.9297 13.7168 48.6258 13.8333C48.3219 13.9499 47.9781 13.8057 47.8578 13.5112L47.0139 11.4453L45.6384 16.2725C45.5686 16.5174 45.3407 16.6887 45.0785 16.6932C44.8163 16.6977 44.5823 16.5345 44.5035 16.2921L42.4115 9.8562L40.1928 18.5439C40.1253 18.8083 39.8751 18.9902 39.5942 18.9791C39.3133 18.968 39.0793 18.7669 39.0342 18.4981L37.475 9.19708L35.8099 21.1501C35.77 21.4365 35.5165 21.6493 35.2183 21.6468C34.9202 21.6443 34.6705 21.4272 34.6357 21.1403L33.0696 8.21333L31.5053 23.1888C31.4746 23.4825 31.2189 23.7056 30.9142 23.7045C30.6096 23.7033 30.3556 23.4783 30.3273 23.1844L28.8239 7.59742L27.2869 24.477C27.26 24.7729 27.0043 24.9998 26.6977 25C26.3912 25.0002 26.1352 24.7734 26.108 24.4776L24.4773 6.77675L22.7158 24.4816C22.6865 24.7761 22.4308 25.0007 22.1255 25C21.8201 24.9993 21.5654 24.7737 21.5375 24.4791L19.9244 7.47274L18.409 23.1844C18.3808 23.4769 18.129 23.7015 17.8258 23.7044C17.5226 23.7074 17.2661 23.4878 17.2318 23.1959L15.4496 8.03007L13.9251 21.1376C13.8917 21.4253 13.6422 21.6436 13.3435 21.6468C13.0448 21.65 12.7905 21.437 12.7506 21.1501L11.0856 9.19709L9.52631 18.4981C9.48015 18.7734 9.23616 18.9766 8.94826 18.9795C8.66037 18.9824 8.41212 18.7841 8.36013 18.5097L6.80615 10.3086L5.11802 16.2716C5.04861 16.5167 4.82087 16.6884 4.55854 16.6932C4.29621 16.698 4.06192 16.5349 3.98296 16.2924L2.36884 11.336L1.14052 14.2773C1.01793 14.5709 0.672942 14.7126 0.369971 14.5938C0.0669999 14.475 -0.0792277 14.1408 0.0433626 13.8472L1.88921 9.42712C1.98285 9.20288 2.21165 9.0597 2.4611 9.06924C2.71056 9.07877 2.92701 9.23896 3.00214 9.46964L4.50763 14.0925L6.34984 7.5853C6.42286 7.32736 6.67024 7.1526 6.94603 7.16412C7.22181 7.17563 7.45275 7.37037 7.5026 7.63344L8.90652 15.0426L10.5555 5.20638C10.6025 4.92594 10.8544 4.72115 11.1476 4.72497C11.4408 4.72879 11.6869 4.94006 11.7261 5.22162L13.2842 16.4073L14.8585 2.87164C14.8922 2.58177 15.1452 2.36263 15.4462 2.36246C15.7473 2.36229 16.0005 2.58115 16.0346 2.87098L17.7619 17.5695L19.3401 1.20592C19.3686 0.911026 19.6241 0.685648 19.9298 0.685875C20.2355 0.686103 20.4907 0.911861 20.5186 1.20679L22.1408 18.3096L23.9109 0.518374C23.9403 0.223597 24.1965 -0.00104468 24.5021 3.65407e-06Z" fill="#161A1B"/>
</svg>
